<?xml version="1.0" standalone="no"?>
<!DOCTYPE svg PUBLIC "-//W3C//DTD SVG 20010904//EN"
 "http://www.w3.org/TR/2001/REC-SVG-20010904/DTD/svg10.dtd">
<svg version="1.0" xmlns="http://www.w3.org/2000/svg"
 width="1024.000000pt" height="1024.000000pt" viewBox="0 0 1024.000000 1024.000000"
 preserveAspectRatio="xMidYMid meet">

<g transform="translate(0.000000,1024.000000) scale(0.100000,-0.100000)"
fill="#000000" stroke="none">
<path d="M0 5120 l0 -5120 5120 0 5120 0 0 5120 0 5120 -5120 0 -5120 0 0
-5120z m5567 3596 c1540 -195 2767 -1323 3077 -2828 53 -260 70 -429 70 -728
1 -369 -30 -625 -113 -945 -293 -1124 -1105 -2040 -2189 -2469 -820 -325
-1784 -319 -2610 16 -324 131 -641 317 -920 541 -147 118 -405 370 -515 504
-686 833 -967 1874 -796 2948 161 1010 782 1926 1671 2465 450 273 982 451
1493 500 61 5 126 12 145 14 82 9 572 -4 687 -18z"/>
<path d="M4780 8374 c-567 -68 -1031 -237 -1488 -542 -178 -119 -315 -233
-487 -406 -169 -170 -292 -320 -411 -502 -269 -410 -436 -865 -499 -1354 -23
-175 -31 -516 -16 -692 45 -533 216 -1045 498 -1494 35 -57 68 -106 73 -109 4
-3 165 -6 357 -6 l348 -1 49 79 c27 43 156 260 286 483 130 223 325 554 432
735 107 182 316 535 463 785 147 250 303 514 345 585 43 72 148 249 233 394
l156 263 26 -43 c14 -24 67 -114 117 -199 50 -85 247 -418 438 -740 466 -786
1020 -1723 1219 -2062 l163 -278 349 0 c192 0 352 -1 356 -1 15 -3 166 250
248 416 161 326 258 643 311 1010 21 151 30 580 15 742 -94 1001 -601 1851
-1436 2408 -551 367 -1159 548 -1834 544 -108 -1 -248 -7 -311 -15z m610 -975
c359 -42 717 -192 999 -420 317 -255 561 -600 690 -973 76 -221 108 -393 118
-643 l6 -163 -175 0 -175 0 -6 148 c-10 243 -50 431 -134 637 -224 550 -719
952 -1299 1056 -167 30 -430 30 -596 1 -695 -125 -1251 -680 -1387 -1383 -22
-115 -44 -339 -39 -409 l2 -45 -174 0 -175 0 3 145 c9 569 235 1088 649 1490
182 178 327 280 546 385 342 163 729 222 1147 174z"/>
<path d="M4918 5557 c-331 -560 -568 -965 -568 -971 0 -6 637 -803 733 -918
l39 -47 389 481 c214 264 387 483 385 486 -15 28 -770 1289 -775 1294 -3 4
-95 -142 -203 -325z"/>
<path d="M4034 4063 c-323 -546 -438 -741 -456 -770 l-19 -31 696 -1 c382 -1
695 1 695 5 0 8 -790 994 -796 994 -2 0 -56 -89 -120 -197z"/>
<path d="M5860 3977 c-124 -154 -303 -377 -397 -494 -95 -118 -173 -216 -173
-218 0 -3 313 -5 696 -5 570 0 695 2 692 13 -4 18 -582 986 -588 986 -3 0
-106 -127 -230 -282z"/>
<path d="M2855 2791 c420 -411 929 -696 1502 -840 255 -65 482 -91 772 -92
366 0 675 50 1021 167 458 155 872 410 1220 751 l135 132 -2385 0 -2385 0 120
-118z"/>
</g>
</svg>
